<?xml version="1.0" encoding="UTF-8" standalone="no"?>
<svg width="101px" height="101px" viewBox="0 0 101 101" version="1.1" xmlns="http://www.w3.org/2000/svg" xmlns:xlink="http://www.w3.org/1999/xlink">
    <!-- Generator: Sketch 3.8.3 (29802) - http://www.bohemiancoding.com/sketch -->
    <title>noun_12589_cc</title>
    <desc>Created with Sketch.</desc>
    <defs></defs>
    <g id="Page-1" stroke="none" stroke-width="1" fill="none" fill-rule="evenodd">
        <g id="noun_12589_cc" fill="#000000">
            <polygon id="Shape" points="72.896 43.85 50.416 21.373 43.968 27.831 61.859 45.718 23.986 45.718 23.986 54.85 61.894 54.85 44.006 72.738 50.459 79.195 79.363 50.291 72.91 43.837"></polygon>
            <path d="M50.465,0.281 C22.855,0.281 0.466,22.669 0.466,50.284 C0.466,77.899 22.855,100.287 50.465,100.287 C78.085,100.287 100.473,77.899 100.473,50.284 C100.473,22.669 78.085,0.281 50.465,0.281 L50.465,0.281 Z M82.947,53.875 L54.043,82.779 L50.459,86.365 L46.875,82.779 L40.422,76.322 L36.838,72.736 L40.422,69.154 L49.655,59.918 L23.986,59.918 L18.918,59.918 L18.918,54.85 L18.918,45.719 L18.918,40.65 L23.986,40.65 L49.621,40.65 L40.384,31.415 L36.8,27.833 L40.379,24.25 L46.83,17.792 L50.414,14.204 L54,17.789 L72.899,36.688 L72.912,36.673 L76.492,40.253 L82.947,46.709 L86.531,50.291 L82.947,53.875 L82.947,53.875 Z" id="Shape"></path>
        </g>
    </g>
</svg>